# xmcd
#
# Track frame offsets: 
#        150
#        28262
#        65059
#        88598
#        109565
#        125105
#        146502
#        172117
#        228240
#        247940
#
# Disc length: 3553 seconds
#
# Revision: 0
# Processed by: cddbd v1.5.2PL0 Copyright (c) Steve Scherf et al.
# Submitted via: ExactAudioCopy v0.99pb4
#
DISCID=8a0ddf0a
DTITLE=fleetwood mac - "the warehouse" jan. 29 1970
DYEAR=1970
DGENRE=Rock
TTITLE0=Intro/Before The Beginning
TTITLE1=It Takes Time
TTITLE2=Like It This Way
TTITLE3=Only You
TTITLE4=Madison Blues
TTITLE5=Oh Baby
TTITLE6=Albatross
TTITLE7=The Green Manalishi
TTITLE8=World In Harmony
TTITLE9=Stranger Blues
EXTD=
EXTT0=
EXTT1=
EXTT2=
EXTT3=
EXTT4=
EXTT5=
EXTT6=
EXTT7=
EXTT8=
EXTT9=
PLAYORDER=
